REM DIRINDEX 1\2,1\3,1\4,1\6,1\5\7,1\5\8
REM DIRNAME cjc114,folder01,folder02,folder03,folder04,folder05,folder06,folder07
TITLE ""
FILE "DB4500_5th_3B_13.mp3" MP3
  TRACK 01 AUDIO
    TITLE "0:"
    INDEX 01 00:00:00
  TRACK 02 AUDIO
    TITLE "2:cjc114_2070"
    INDEX 01 00:00:05
  TRACK 03 AUDIO
    TITLE "0:"
    INDEX 01 00:01:26
  TRACK 04 AUDIO
    TITLE "3:cjc114_2071"
    INDEX 01 00:01:56
  TRACK 05 AUDIO
    TITLE "0:"
    INDEX 01 00:04:09
  TRACK 06 AUDIO
    TITLE "4:cjc114_2072"
    INDEX 01 00:04:36
  TRACK 07 AUDIO
    TITLE "0:"
    INDEX 01 00:07:17
  TRACK 08 AUDIO
    TITLE "2:cjc114_2073"
    INDEX 01 00:07:66
  TRACK 09 AUDIO
    TITLE "0:"
    INDEX 01 00:09:10
  TRACK 10 AUDIO
    TITLE "3:cjc114_2074"
    INDEX 01 00:09:40
  TRACK 11 AUDIO
    TITLE "0:"
    INDEX 01 00:11:40
  TRACK 12 AUDIO
    TITLE "4:cjc114_2075"
    INDEX 01 00:11:66
  TRACK 13 AUDIO
    TITLE "0:"
    INDEX 01 00:15:32
  TRACK 14 AUDIO
    TITLE "2:cjc114_2076"
    INDEX 01 00:16:12
  TRACK 15 AUDIO
    TITLE "0:"
    INDEX 01 00:17:18
  TRACK 16 AUDIO
    TITLE "3:cjc114_2077"
    INDEX 01 00:17:47
  TRACK 17 AUDIO
    TITLE "0:"
    INDEX 01 00:19:40
  TRACK 18 AUDIO
    TITLE "4:cjc114_2078"
    INDEX 01 00:19:69
  TRACK 19 AUDIO
    TITLE "0:"
    INDEX 01 00:22:74
  TRACK 20 AUDIO
    TITLE "2:cjc114_2079"
    INDEX 01 00:23:51
  TRACK 21 AUDIO
    TITLE "0:"
    INDEX 01 00:25:01
  TRACK 22 AUDIO
    TITLE "3:cjc114_2080"
    INDEX 01 00:25:31
  TRACK 23 AUDIO
    TITLE "0:"
    INDEX 01 00:27:32
  TRACK 24 AUDIO
    TITLE "4:cjc114_2081"
    INDEX 01 00:27:61
  TRACK 25 AUDIO
    TITLE "0:"
    INDEX 01 00:31:57
  TRACK 26 AUDIO
    TITLE "2:cjc114_2082"
    INDEX 01 00:32:35
  TRACK 27 AUDIO
    TITLE "0:"
    INDEX 01 00:33:52
  TRACK 28 AUDIO
    TITLE "3:cjc114_2083"
    INDEX 01 00:34:04
  TRACK 29 AUDIO
    TITLE "0:"
    INDEX 01 00:36:54
  TRACK 30 AUDIO
    TITLE "4:cjc114_2084"
    INDEX 01 00:37:07
  TRACK 31 AUDIO
    TITLE "0:"
    INDEX 01 00:41:10
  TRACK 32 AUDIO
    TITLE "2:cjc114_2085"
    INDEX 01 00:41:63
  TRACK 33 AUDIO
    TITLE "0:"
    INDEX 01 00:43:05
  TRACK 34 AUDIO
    TITLE "3:cjc114_2086"
    INDEX 01 00:43:35
  TRACK 35 AUDIO
    TITLE "0:"
    INDEX 01 00:44:61
  TRACK 36 AUDIO
    TITLE "4:cjc114_2087"
    INDEX 01 00:45:14
  TRACK 37 AUDIO
    TITLE "0:"
    INDEX 01 00:49:57
  TRACK 38 AUDIO
    TITLE "2:cjc114_2088"
    INDEX 01 00:50:35
  TRACK 39 AUDIO
    TITLE "0:"
    INDEX 01 00:51:46
  TRACK 40 AUDIO
    TITLE "3:cjc114_2089"
    INDEX 01 00:52:02
  TRACK 41 AUDIO
    TITLE "0:"
    INDEX 01 00:53:21
  TRACK 42 AUDIO
    TITLE "4:cjc114_2090"
    INDEX 01 00:53:49
  TRACK 43 AUDIO
    TITLE "0:"
    INDEX 01 00:57:60
  TRACK 44 AUDIO
    TITLE "2:cjc114_2091"
    INDEX 01 00:58:40
  TRACK 45 AUDIO
    TITLE "0:"
    INDEX 01 00:59:41
  TRACK 46 AUDIO
    TITLE "3:cjc114_2092"
    INDEX 01 00:59:69
  TRACK 47 AUDIO
    TITLE "0:"
    INDEX 01 01:00:74
  TRACK 48 AUDIO
    TITLE "4:cjc114_2093"
    INDEX 01 01:01:27
  TRACK 49 AUDIO
    TITLE "0:"
    INDEX 01 01:04:25
  TRACK 50 AUDIO
    TITLE "2:cjc114_2094"
    INDEX 01 01:05:03
  TRACK 51 AUDIO
    TITLE "0:"
    INDEX 01 01:06:06
  TRACK 52 AUDIO
    TITLE "3:cjc114_2095"
    INDEX 01 01:06:34
  TRACK 53 AUDIO
    TITLE "0:"
    INDEX 01 01:07:35
  TRACK 54 AUDIO
    TITLE "4:cjc114_2096"
    INDEX 01 01:07:64
  TRACK 55 AUDIO
    TITLE "0:"
    INDEX 01 01:11:07
  TRACK 56 AUDIO
    TITLE "2:cjc114_2097"
    INDEX 01 01:11:64
  TRACK 57 AUDIO
    TITLE "0:"
    INDEX 01 01:12:58
  TRACK 58 AUDIO
    TITLE "3:cjc114_2098"
    INDEX 01 01:13:08
  TRACK 59 AUDIO
    TITLE "0:"
    INDEX 01 01:14:14
  TRACK 60 AUDIO
    TITLE "4:cjc114_2099"
    INDEX 01 01:14:41
  TRACK 61 AUDIO
    TITLE "0:"
    INDEX 01 01:17:59
  TRACK 62 AUDIO
    TITLE "2:cjc114_2100"
    INDEX 01 01:18:37
  TRACK 63 AUDIO
    TITLE "0:"
    INDEX 01 01:19:56
  TRACK 64 AUDIO
    TITLE "3:cjc114_2101"
    INDEX 01 01:20:14
  TRACK 65 AUDIO
    TITLE "0:"
    INDEX 01 01:21:27
  TRACK 66 AUDIO
    TITLE "4:cjc114_2102"
    INDEX 01 01:21:57
  TRACK 67 AUDIO
    TITLE "0:"
    INDEX 01 01:24:08
  TRACK 68 AUDIO
    TITLE "2:cjc114_2103"
    INDEX 01 01:24:65
  TRACK 69 AUDIO
    TITLE "0:"
    INDEX 01 01:25:51
  TRACK 70 AUDIO
    TITLE "3:cjc114_2104"
    INDEX 01 01:26:07
  TRACK 71 AUDIO
    TITLE "0:"
    INDEX 01 01:27:12
  TRACK 72 AUDIO
    TITLE "4:cjc114_2105"
    INDEX 01 01:27:40
  TRACK 73 AUDIO
    TITLE "0:"
    INDEX 01 01:30:32
  TRACK 74 AUDIO
    TITLE "2:cjc114_2106"
    INDEX 01 01:31:12
  TRACK 75 AUDIO
    TITLE "0:"
    INDEX 01 01:32:17
  TRACK 76 AUDIO
    TITLE "3:cjc114_2107"
    INDEX 01 01:32:47
  TRACK 77 AUDIO
    TITLE "0:"
    INDEX 01 01:33:48
  TRACK 78 AUDIO
    TITLE "4:cjc114_2108"
    INDEX 01 01:34:01
  TRACK 79 AUDIO
    TITLE "0:"
    INDEX 01 01:37:48
  TRACK 80 AUDIO
    TITLE "2:cjc114_2109"
    INDEX 01 01:38:26
  TRACK 81 AUDIO
    TITLE "0:"
    INDEX 01 01:39:29
  TRACK 82 AUDIO
    TITLE "3:cjc114_2110"
    INDEX 01 01:39:57
  TRACK 83 AUDIO
    TITLE "0:"
    INDEX 01 01:40:74
  TRACK 84 AUDIO
    TITLE "4:cjc114_2111"
    INDEX 01 01:41:26
  TRACK 85 AUDIO
    TITLE "0:"
    INDEX 01 01:43:72
